<mxfile host="app.diagrams.net" modified="2023-05-31T08:36:35.222Z" agent="Mozilla/5.0 (X11; Linux x86_64) AppleWebKit/537.36 (KHTML, like Gecko) Chrome/115.0.0.0 Safari/537.36 Edg/115.0.0.0" version="21.3.6" etag="zxhalwKKqATMLNxZZiIi" type="github">
  <diagram name="Page-1" id="dNwB8chvCX5h2J8CfjuQ">
    <mxGraphModel>
      <root>
        <mxCell id="0" />
        <mxCell id="1" parent="0" />
      </root>
    </mxGraphModel>
  </diagram>
</mxfile>
